<svg width="150" height="46" viewBox="0 0 150 46" fill="none" xmlns="http://www.w3.org/2000/svg">
<path d="M4.57275 39.4002C4.57275 39.9172 4.40211 40.3336 4.06083 40.6495C3.71955 40.9655 3.20762 41.1234 2.52506 41.1234H1.30166V43.6909H0.694292V37.6684H2.52506C3.20184 37.6684 3.71087 37.8264 4.05215 38.1423C4.39922 38.4582 4.57275 38.8775 4.57275 39.4002ZM2.52506 40.6065C3.47371 40.6065 3.94803 40.2044 3.94803 39.4002C3.94803 38.9982 3.83523 38.6937 3.60964 38.487C3.38405 38.2802 3.02252 38.1768 2.52506 38.1768H1.30166V40.6065H2.52506Z" fill="#343829"/>
<path d="M7.66556 43.7599C7.22016 43.7599 6.81814 43.6622 6.45951 43.4669C6.10666 43.2659 5.82612 42.9844 5.61788 42.6226C5.41542 42.255 5.31419 41.827 5.31419 41.3388C5.31419 40.8506 5.41831 40.4255 5.62655 40.0637C5.83479 39.696 6.11823 39.4146 6.47686 39.2193C6.8355 39.0183 7.23752 38.9177 7.68292 38.9177C8.12832 38.9177 8.53033 39.0183 8.88897 39.2193C9.25339 39.4146 9.53682 39.696 9.73928 40.0637C9.94752 40.4255 10.0516 40.8506 10.0516 41.3388C10.0516 41.8213 9.94752 42.2463 9.73928 42.614C9.53104 42.9816 9.24471 43.2659 8.88029 43.4669C8.51587 43.6622 8.11096 43.7599 7.66556 43.7599ZM7.66556 43.2343C7.97792 43.2343 8.26714 43.1654 8.53323 43.0275C8.79931 42.8839 9.01333 42.6714 9.1753 42.3899C9.34305 42.1028 9.42692 41.7524 9.42692 41.3388C9.42692 40.9252 9.34594 40.5777 9.18397 40.2963C9.02201 40.0091 8.80799 39.7966 8.5419 39.6587C8.27582 39.5151 7.9866 39.4433 7.67424 39.4433C7.36188 39.4433 7.07266 39.5151 6.80658 39.6587C6.54049 39.7966 6.32647 40.0091 6.1645 40.2963C6.00833 40.5777 5.93024 40.9252 5.93024 41.3388C5.93024 41.7524 6.00833 42.1028 6.1645 42.3899C6.32647 42.6714 6.5376 42.8839 6.7979 43.0275C7.06398 43.1654 7.3532 43.2343 7.66556 43.2343Z" fill="#343829"/>
<path d="M17.406 38.9867L15.9223 43.6909H15.3149L14.0047 39.7449L12.6946 43.6909H12.0785L10.5948 38.9867H11.2108L12.3909 43.0792L13.7184 38.9867H14.3258L15.6359 43.0878L16.8073 38.9867H17.406Z" fill="#343829"/>
<path d="M22.5202 41.0976C22.5202 41.3043 22.5145 41.4623 22.5029 41.5714H18.5724C18.5897 41.9276 18.6765 42.232 18.8327 42.4847C18.9888 42.7375 19.1942 42.9299 19.4487 43.062C19.7032 43.1884 19.9809 43.2515 20.2817 43.2515C20.675 43.2515 21.0047 43.1568 21.2708 42.9672C21.5427 42.7777 21.722 42.5221 21.8088 42.2004H22.4508C22.3351 42.6599 22.0864 43.0361 21.7046 43.3291C21.3286 43.6163 20.8543 43.7599 20.2817 43.7599C19.8363 43.7599 19.4371 43.6622 19.0843 43.4669C18.7314 43.2659 18.4538 42.9844 18.2513 42.6226C18.0547 42.255 17.9563 41.827 17.9563 41.3388C17.9563 40.8506 18.0547 40.4227 18.2513 40.055C18.448 39.6874 18.7228 39.406 19.0756 39.2107C19.4285 39.0154 19.8305 38.9177 20.2817 38.9177C20.7328 38.9177 21.1262 39.0154 21.4617 39.2107C21.803 39.406 22.0633 39.6702 22.2426 40.0033C22.4277 40.3307 22.5202 40.6955 22.5202 41.0976ZM21.9042 41.0803C21.91 40.73 21.8377 40.4313 21.6873 40.1843C21.5427 39.9373 21.3431 39.7506 21.0886 39.6242C20.8341 39.4979 20.5564 39.4347 20.2556 39.4347C19.8044 39.4347 19.4198 39.5783 19.1016 39.8655C18.7835 40.1527 18.6071 40.5576 18.5724 41.0803H21.9042Z" fill="#343829"/>
<path d="M24.2388 39.8224C24.3719 39.5295 24.5743 39.3026 24.8462 39.1418C25.1238 38.9809 25.4622 38.9005 25.8614 38.9005V39.5295H25.6965C25.2569 39.5295 24.904 39.6472 24.6379 39.8827C24.3719 40.1182 24.2388 40.5117 24.2388 41.0631V43.6909H23.6315V38.9867H24.2388V39.8224Z" fill="#343829"/>
<path d="M28.6405 39.495H27.5386V43.6909H26.9312V39.495H26.2718V38.9867H26.9312V38.6593C26.9312 38.1481 27.0614 37.7718 27.3217 37.5306C27.5878 37.2893 28.0158 37.1687 28.6058 37.1687V37.6857C28.2125 37.6857 27.9348 37.7603 27.7729 37.9097C27.6167 38.059 27.5386 38.3089 27.5386 38.6593V38.9867H28.6405V39.495Z" fill="#343829"/>
<path d="M33.7007 38.9867V43.6909H33.0933V42.8638C32.9545 43.1568 32.7405 43.3808 32.4513 43.5359C32.162 43.6909 31.8381 43.7685 31.4795 43.7685C30.9126 43.7685 30.4498 43.5962 30.0912 43.2515C29.7326 42.9012 29.5533 42.3957 29.5533 41.7351V38.9867H30.1519V41.6662C30.1519 42.1774 30.2792 42.568 30.5337 42.838C30.794 43.1079 31.1469 43.2429 31.5923 43.2429C32.0492 43.2429 32.4137 43.0993 32.6855 42.8121C32.9574 42.5249 33.0933 42.1028 33.0933 41.5456V38.9867H33.7007Z" fill="#343829"/>
<path d="M35.6947 37.3152V43.6909H35.0873V37.3152H35.6947Z" fill="#343829"/>
<path d="M40.0584 37.6684V43.6909H39.4511V37.6684H40.0584Z" fill="#343829"/>
<path d="M43.655 38.9005C44.2219 38.9005 44.6847 39.0757 45.0433 39.4261C45.4019 39.7707 45.5812 40.2733 45.5812 40.9339V43.6909H44.9826V41.0028C44.9826 40.4916 44.8524 40.101 44.5921 39.831C44.3376 39.5611 43.9876 39.4261 43.5422 39.4261C43.0853 39.4261 42.7208 39.5697 42.449 39.8569C42.1771 40.1441 42.0412 40.5663 42.0412 41.1234V43.6909H41.4338V38.9867H42.0412V39.788C42.1916 39.5008 42.4085 39.2825 42.6919 39.1331C42.9754 38.9781 43.2964 38.9005 43.655 38.9005Z" fill="#343829"/>
<path d="M47.7141 39.495V42.4158C47.7141 42.703 47.769 42.9012 47.8789 43.0103C47.9888 43.1194 48.1826 43.174 48.4603 43.174H49.0156V43.6909H48.3648C47.9368 43.6909 47.6186 43.5933 47.4104 43.398C47.2021 43.197 47.098 42.8696 47.098 42.4158V39.495H46.4386V38.9867H47.098V37.8063H47.7141V38.9867H49.0156V39.495H47.7141Z" fill="#343829"/>
<path d="M54.3035 41.0976C54.3035 41.3043 54.2977 41.4623 54.2861 41.5714H50.3556C50.373 41.9276 50.4598 42.232 50.6159 42.4847C50.7721 42.7375 50.9775 42.9299 51.232 43.062C51.4865 43.1884 51.7641 43.2515 52.0649 43.2515C52.4583 43.2515 52.788 43.1568 53.0541 42.9672C53.3259 42.7777 53.5053 42.5221 53.592 42.2004H54.2341C54.1184 42.6599 53.8697 43.0361 53.4879 43.3291C53.1119 43.6163 52.6376 43.7599 52.0649 43.7599C51.6195 43.7599 51.2204 43.6622 50.8676 43.4669C50.5147 43.2659 50.2371 42.9844 50.0346 42.6226C49.8379 42.255 49.7396 41.827 49.7396 41.3388C49.7396 40.8506 49.8379 40.4227 50.0346 40.055C50.2313 39.6874 50.506 39.406 50.8589 39.2107C51.2117 39.0154 51.6137 38.9177 52.0649 38.9177C52.5161 38.9177 52.9095 39.0154 53.245 39.2107C53.5862 39.406 53.8465 39.6702 54.0258 40.0033C54.2109 40.3307 54.3035 40.6955 54.3035 41.0976ZM53.6875 41.0803C53.6932 40.73 53.6209 40.4313 53.4705 40.1843C53.3259 39.9373 53.1264 39.7506 52.8719 39.6242C52.6173 39.4979 52.3397 39.4347 52.0389 39.4347C51.5877 39.4347 51.2031 39.5783 50.8849 39.8655C50.5668 40.1527 50.3903 40.5576 50.3556 41.0803H53.6875Z" fill="#343829"/>
<path d="M56.0221 37.3152V43.6909H55.4147V37.3152H56.0221Z" fill="#343829"/>
<path d="M58.0048 37.3152V43.6909H57.3975V37.3152H58.0048Z" fill="#343829"/>
<path d="M59.6839 38.0992C59.5624 38.0992 59.4583 38.0562 59.3715 37.97C59.2848 37.8838 59.2414 37.7776 59.2414 37.6512C59.2414 37.5248 59.2848 37.4215 59.3715 37.341C59.4583 37.2549 59.5624 37.2118 59.6839 37.2118C59.8054 37.2118 59.9095 37.2549 59.9963 37.341C60.083 37.4215 60.1264 37.5248 60.1264 37.6512C60.1264 37.7776 60.083 37.8838 59.9963 37.97C59.9095 38.0562 59.8054 38.0992 59.6839 38.0992ZM59.9876 38.9867V43.6909H59.3802V38.9867H59.9876Z" fill="#343829"/>
<path d="M63.3499 38.9177C63.7953 38.9177 64.1829 39.0211 64.5126 39.2279C64.8423 39.4347 65.0795 39.696 65.2241 40.012V38.9867H65.8314V43.8116C65.8314 44.2424 65.736 44.6243 65.5451 44.9575C65.36 45.2906 65.0997 45.5462 64.7642 45.7243C64.4287 45.9081 64.0469 46 63.6189 46C63.0115 46 62.5054 45.8564 62.1005 45.5692C61.7014 45.282 61.4526 44.8914 61.3543 44.3974H61.953C62.0571 44.7248 62.2538 44.9862 62.543 45.1815C62.838 45.3768 63.1966 45.4744 63.6189 45.4744C63.9255 45.4744 64.2002 45.4084 64.4432 45.2763C64.6861 45.1499 64.877 44.9604 65.0158 44.7076C65.1547 44.4549 65.2241 44.1562 65.2241 43.8116V42.6484C65.0737 42.9701 64.8336 43.2372 64.5039 43.4497C64.18 43.6565 63.7953 43.7599 63.3499 43.7599C62.9161 43.7599 62.5256 43.6594 62.1786 43.4583C61.8373 43.2573 61.5683 42.973 61.3716 42.6053C61.1808 42.2377 61.0853 41.8127 61.0853 41.3302C61.0853 40.8477 61.1808 40.4255 61.3716 40.0637C61.5683 39.696 61.8373 39.4146 62.1786 39.2193C62.5256 39.0183 62.9161 38.9177 63.3499 38.9177ZM65.2241 41.3388C65.2241 40.9597 65.146 40.6266 64.9898 40.3394C64.8336 40.0522 64.6196 39.831 64.3477 39.6759C64.0816 39.5209 63.7866 39.4433 63.4627 39.4433C63.1272 39.4433 62.8264 39.518 62.5603 39.6673C62.2943 39.8167 62.0831 40.0349 61.9269 40.3221C61.7766 40.6036 61.7014 40.9396 61.7014 41.3302C61.7014 41.715 61.7766 42.0539 61.9269 42.3469C62.0831 42.6341 62.2943 42.8552 62.5603 43.0103C62.8264 43.1596 63.1272 43.2343 63.4627 43.2343C63.7866 43.2343 64.0816 43.1568 64.3477 43.0017C64.6196 42.8466 64.8336 42.6254 64.9898 42.3382C65.146 42.0511 65.2241 41.7179 65.2241 41.3388Z" fill="#343829"/>
<path d="M71.5043 41.0976C71.5043 41.3043 71.4985 41.4623 71.4869 41.5714H67.5564C67.5737 41.9276 67.6605 42.232 67.8167 42.4847C67.9729 42.7375 68.1782 42.9299 68.4327 43.062C68.6872 43.1884 68.9649 43.2515 69.2657 43.2515C69.659 43.2515 69.9887 43.1568 70.2548 42.9672C70.5267 42.7777 70.706 42.5221 70.7928 42.2004H71.4348C71.3192 42.6599 71.0704 43.0361 70.6887 43.3291C70.3127 43.6163 69.8383 43.7599 69.2657 43.7599C68.8203 43.7599 68.4212 43.6622 68.0683 43.4669C67.7155 43.2659 67.4378 42.9844 67.2354 42.6226C67.0387 42.255 66.9403 41.827 66.9403 41.3388C66.9403 40.8506 67.0387 40.4227 67.2354 40.055C67.432 39.6874 67.7068 39.406 68.0596 39.2107C68.4125 39.0154 68.8145 38.9177 69.2657 38.9177C69.7169 38.9177 70.1102 39.0154 70.4457 39.2107C70.787 39.406 71.0473 39.6702 71.2266 40.0033C71.4117 40.3307 71.5043 40.6955 71.5043 41.0976ZM70.8882 41.0803C70.894 40.73 70.8217 40.4313 70.6713 40.1843C70.5267 39.9373 70.3271 39.7506 70.0726 39.6242C69.8181 39.4979 69.5404 39.4347 69.2397 39.4347C68.7885 39.4347 68.4038 39.5783 68.0857 39.8655C67.7675 40.1527 67.5911 40.5576 67.5564 41.0803H70.8882Z" fill="#343829"/>
<path d="M74.8367 38.9005C75.4036 38.9005 75.8663 39.0757 76.225 39.4261C76.5836 39.7707 76.7629 40.2733 76.7629 40.9339V43.6909H76.1642V41.0028C76.1642 40.4916 76.0341 40.101 75.7738 39.831C75.5193 39.5611 75.1693 39.4261 74.7239 39.4261C74.2669 39.4261 73.9025 39.5697 73.6306 39.8569C73.3588 40.1441 73.2228 40.5663 73.2228 41.1234V43.6909H72.6155V38.9867H73.2228V39.788C73.3732 39.5008 73.5901 39.2825 73.8736 39.1331C74.157 38.9781 74.4781 38.9005 74.8367 38.9005Z" fill="#343829"/>
<path d="M77.8285 41.3388C77.8285 40.8506 77.9268 40.4255 78.1235 40.0637C78.3202 39.696 78.5921 39.4146 78.9391 39.2193C79.2862 39.0183 79.6824 38.9177 80.1278 38.9177C80.7121 38.9177 81.1922 39.0613 81.5681 39.3485C81.9499 39.6357 82.1958 40.0263 82.3057 40.5203H81.6549C81.5739 40.1814 81.3975 39.9172 81.1256 39.7276C80.8596 39.5323 80.5269 39.4347 80.1278 39.4347C79.8097 39.4347 79.5234 39.5065 79.2688 39.6501C79.0143 39.7937 78.8119 40.0091 78.6615 40.2963C78.5169 40.5777 78.4446 40.9252 78.4446 41.3388C78.4446 41.7524 78.5169 42.1028 78.6615 42.3899C78.8119 42.6771 79.0143 42.8925 79.2688 43.0361C79.5234 43.1797 79.8097 43.2515 80.1278 43.2515C80.5269 43.2515 80.8596 43.1568 81.1256 42.9672C81.3975 42.7719 81.5739 42.502 81.6549 42.1573H82.3057C82.1958 42.6398 81.9499 43.0275 81.5681 43.3205C81.1864 43.6134 80.7063 43.7599 80.1278 43.7599C79.6824 43.7599 79.2862 43.6622 78.9391 43.4669C78.5921 43.2659 78.3202 42.9844 78.1235 42.6226C77.9268 42.255 77.8285 41.827 77.8285 41.3388Z" fill="#343829"/>
<path d="M87.7136 41.0976C87.7136 41.3043 87.7079 41.4623 87.6963 41.5714H83.7658C83.7831 41.9276 83.8699 42.232 84.0261 42.4847C84.1822 42.7375 84.3876 42.9299 84.6421 43.062C84.8966 43.1884 85.1743 43.2515 85.4751 43.2515C85.8684 43.2515 86.1981 43.1568 86.4642 42.9672C86.7361 42.7777 86.9154 42.5221 87.0022 42.2004H87.6442C87.5285 42.6599 87.2798 43.0361 86.898 43.3291C86.522 43.6163 86.0477 43.7599 85.4751 43.7599C85.0297 43.7599 84.6305 43.6622 84.2777 43.4669C83.9248 43.2659 83.6472 42.9844 83.4447 42.6226C83.2481 42.255 83.1497 41.827 83.1497 41.3388C83.1497 40.8506 83.2481 40.4227 83.4447 40.055C83.6414 39.6874 83.9162 39.406 84.269 39.2107C84.6219 39.0154 85.0239 38.9177 85.4751 38.9177C85.9263 38.9177 86.3196 39.0154 86.6551 39.2107C86.9964 39.406 87.2567 39.6702 87.436 40.0033C87.6211 40.3307 87.7136 40.6955 87.7136 41.0976ZM87.0976 41.0803C87.1034 40.73 87.0311 40.4313 86.8807 40.1843C86.7361 39.9373 86.5365 39.7506 86.282 39.6242C86.0275 39.4979 85.7498 39.4347 85.449 39.4347C84.9979 39.4347 84.6132 39.5783 84.295 39.8655C83.9769 40.1527 83.8005 40.5576 83.7658 41.0803H87.0976Z" fill="#343829"/>
<path d="M97.132 37.746V43.6909H96.5246V38.9436L94.3902 43.6909H93.9477L91.8132 38.9608V43.6909H91.2058V37.746H91.8479L94.1646 42.8983L96.4812 37.746H97.132Z" fill="#343829"/>
<path d="M98.2322 41.3302C98.2322 40.8477 98.3276 40.4255 98.5185 40.0637C98.7152 39.696 98.9841 39.4146 99.3254 39.2193C99.6725 39.0183 100.063 38.9177 100.497 38.9177C100.948 38.9177 101.336 39.0211 101.659 39.2279C101.989 39.4347 102.226 39.6989 102.371 40.0206V38.9867H102.978V43.6909H102.371V42.6484C102.221 42.9701 101.98 43.2372 101.651 43.4497C101.327 43.6565 100.939 43.7599 100.488 43.7599C100.06 43.7599 99.6725 43.6594 99.3254 43.4583C98.9841 43.2573 98.7152 42.973 98.5185 42.6053C98.3276 42.2377 98.2322 41.8127 98.2322 41.3302ZM102.371 41.3388C102.371 40.9597 102.293 40.6266 102.137 40.3394C101.98 40.0522 101.766 39.831 101.495 39.6759C101.228 39.5209 100.933 39.4433 100.61 39.4433C100.274 39.4433 99.9733 39.518 99.7072 39.6673C99.4411 39.8167 99.23 40.0349 99.0738 40.3221C98.9234 40.6036 98.8482 40.9396 98.8482 41.3302C98.8482 41.715 98.9234 42.0539 99.0738 42.3469C99.23 42.6341 99.4411 42.8552 99.7072 43.0103C99.9733 43.1596 100.274 43.2343 100.61 43.2343C100.933 43.2343 101.228 43.1568 101.495 43.0017C101.766 42.8466 101.98 42.6254 102.137 42.3382C102.293 42.0511 102.371 41.7179 102.371 41.3388Z" fill="#343829"/>
<path d="M104.087 41.3302C104.087 40.8477 104.186 40.4255 104.382 40.0637C104.579 39.696 104.848 39.4146 105.189 39.2193C105.536 39.0183 105.927 38.9177 106.36 38.9177C106.777 38.9177 107.153 39.0183 107.488 39.2193C107.824 39.4203 108.07 39.6817 108.226 40.0033V37.3152H108.833V43.6909H108.226V42.6398C108.081 42.9672 107.844 43.2372 107.514 43.4497C107.185 43.6565 106.797 43.7599 106.352 43.7599C105.918 43.7599 105.528 43.6594 105.18 43.4583C104.839 43.2573 104.57 42.973 104.374 42.6053C104.183 42.2377 104.087 41.8127 104.087 41.3302ZM108.226 41.3388C108.226 40.9597 108.148 40.6266 107.992 40.3394C107.836 40.0522 107.621 39.831 107.35 39.6759C107.084 39.5209 106.789 39.4433 106.465 39.4433C106.129 39.4433 105.828 39.518 105.562 39.6673C105.296 39.8167 105.085 40.0349 104.929 40.3221C104.778 40.6036 104.703 40.9396 104.703 41.3302C104.703 41.715 104.778 42.0539 104.929 42.3469C105.085 42.6341 105.296 42.8552 105.562 43.0103C105.828 43.1596 106.129 43.2343 106.465 43.2343C106.789 43.2343 107.084 43.1568 107.35 43.0017C107.621 42.8466 107.836 42.6254 107.992 42.3382C108.148 42.0511 108.226 41.7179 108.226 41.3388Z" fill="#343829"/>
<path d="M114.506 41.0976C114.506 41.3043 114.5 41.4623 114.489 41.5714H110.558C110.576 41.9276 110.662 42.232 110.819 42.4847C110.975 42.7375 111.18 42.9299 111.435 43.062C111.689 43.1884 111.967 43.2515 112.268 43.2515C112.661 43.2515 112.991 43.1568 113.257 42.9672C113.529 42.7777 113.708 42.5221 113.795 42.2004H114.437C114.321 42.6599 114.072 43.0361 113.691 43.3291C113.315 43.6163 112.84 43.7599 112.268 43.7599C111.822 43.7599 111.423 43.6622 111.07 43.4669C110.717 43.2659 110.44 42.9844 110.237 42.6226C110.041 42.255 109.942 41.827 109.942 41.3388C109.942 40.8506 110.041 40.4227 110.237 40.055C110.434 39.6874 110.709 39.406 111.062 39.2107C111.414 39.0154 111.816 38.9177 112.268 38.9177C112.719 38.9177 113.112 39.0154 113.448 39.2107C113.789 39.406 114.049 39.6702 114.228 40.0033C114.414 40.3307 114.506 40.6955 114.506 41.0976ZM113.89 41.0803C113.896 40.73 113.824 40.4313 113.673 40.1843C113.529 39.9373 113.329 39.7506 113.074 39.6242C112.82 39.4979 112.542 39.4347 112.242 39.4347C111.79 39.4347 111.406 39.5783 111.088 39.8655C110.769 40.1527 110.593 40.5576 110.558 41.0803H113.89Z" fill="#343829"/>
<path d="M119.838 43.7513C119.439 43.7513 119.086 43.6823 118.779 43.5445C118.478 43.4066 118.241 43.2142 118.068 42.9672C117.894 42.7202 117.802 42.4445 117.79 42.1401H118.432C118.461 42.433 118.591 42.6915 118.823 42.9155C119.054 43.1338 119.392 43.2429 119.838 43.2429C120.248 43.2429 120.572 43.1395 120.81 42.9327C121.053 42.7202 121.174 42.4531 121.174 42.1315C121.174 41.873 121.107 41.6662 120.974 41.5111C120.841 41.3503 120.677 41.2325 120.48 41.1579C120.283 41.0775 120.011 40.9913 119.664 40.8994C119.259 40.7903 118.938 40.684 118.701 40.5806C118.464 40.4772 118.262 40.3164 118.094 40.0981C117.926 39.8799 117.842 39.584 117.842 39.2107C117.842 38.9005 117.923 38.6248 118.085 38.3836C118.247 38.1366 118.476 37.9442 118.771 37.8063C119.066 37.6684 119.404 37.5995 119.786 37.5995C120.347 37.5995 120.798 37.7374 121.139 38.0131C121.486 38.283 121.686 38.6334 121.738 39.0642H121.079C121.038 38.8172 120.902 38.599 120.671 38.4094C120.439 38.2141 120.127 38.1165 119.734 38.1165C119.369 38.1165 119.066 38.2141 118.823 38.4094C118.58 38.599 118.458 38.8603 118.458 39.1935C118.458 39.4462 118.525 39.6501 118.658 39.8052C118.791 39.9603 118.956 40.078 119.152 40.1584C119.355 40.2388 119.627 40.325 119.968 40.4169C120.361 40.526 120.679 40.6352 120.922 40.7443C121.165 40.8477 121.371 41.0085 121.538 41.2268C121.706 41.4451 121.79 41.738 121.79 42.1056C121.79 42.3871 121.715 42.6542 121.564 42.9069C121.414 43.1596 121.191 43.3635 120.896 43.5186C120.601 43.6737 120.248 43.7513 119.838 43.7513Z" fill="#343829"/>
<path d="M123.267 38.0992C123.146 38.0992 123.042 38.0562 122.955 37.97C122.868 37.8838 122.825 37.7776 122.825 37.6512C122.825 37.5248 122.868 37.4215 122.955 37.341C123.042 37.2549 123.146 37.2118 123.267 37.2118C123.389 37.2118 123.493 37.2549 123.58 37.341C123.667 37.4215 123.71 37.5248 123.71 37.6512C123.71 37.7776 123.667 37.8838 123.58 37.97C123.493 38.0562 123.389 38.0992 123.267 38.0992ZM123.571 38.9867V43.6909H122.964V38.9867H123.571Z" fill="#343829"/>
<path d="M130.586 38.9005C131.142 38.9005 131.593 39.0757 131.94 39.4261C132.293 39.7707 132.469 40.2733 132.469 40.9339V43.6909H131.87V41.0028C131.87 40.4916 131.746 40.101 131.497 39.831C131.249 39.5611 130.91 39.4261 130.482 39.4261C130.037 39.4261 129.681 39.5726 129.415 39.8655C129.149 40.1584 129.016 40.5835 129.016 41.1406V43.6909H128.417V41.0028C128.417 40.4916 128.293 40.101 128.044 39.831C127.795 39.5611 127.454 39.4261 127.02 39.4261C126.575 39.4261 126.219 39.5726 125.953 39.8655C125.687 40.1584 125.554 40.5835 125.554 41.1406V43.6909H124.946V38.9867H125.554V39.7966C125.704 39.5036 125.918 39.2825 126.196 39.1331C126.474 38.9781 126.783 38.9005 127.124 38.9005C127.535 38.9005 127.894 38.9982 128.2 39.1935C128.513 39.3887 128.738 39.6759 128.877 40.055C129.004 39.6817 129.221 39.3974 129.528 39.2021C129.84 39.001 130.193 38.9005 130.586 38.9005Z" fill="#343829"/>
<path d="M134.417 40.0206C134.567 39.7047 134.804 39.4433 135.128 39.2365C135.458 39.024 135.848 38.9177 136.299 38.9177C136.728 38.9177 137.112 39.0183 137.453 39.2193C137.801 39.4146 138.07 39.696 138.26 40.0637C138.457 40.4255 138.555 40.8477 138.555 41.3302C138.555 41.8127 138.457 42.2377 138.26 42.6053C138.07 42.973 137.801 43.2573 137.453 43.4583C137.112 43.6594 136.728 43.7599 136.299 43.7599C135.854 43.7599 135.467 43.6565 135.137 43.4497C134.807 43.2372 134.567 42.973 134.417 42.657V45.9138H133.818V38.9867H134.417V40.0206ZM137.939 41.3302C137.939 40.9396 137.861 40.6036 137.705 40.3221C137.555 40.0349 137.346 39.8167 137.08 39.6673C136.814 39.518 136.514 39.4433 136.178 39.4433C135.854 39.4433 135.556 39.5209 135.284 39.6759C135.018 39.831 134.807 40.0522 134.651 40.3394C134.495 40.6266 134.417 40.9597 134.417 41.3388C134.417 41.7179 134.495 42.0511 134.651 42.3382C134.807 42.6254 135.018 42.8466 135.284 43.0017C135.556 43.1568 135.854 43.2343 136.178 43.2343C136.514 43.2343 136.814 43.1596 137.08 43.0103C137.346 42.8552 137.555 42.6341 137.705 42.3469C137.861 42.0539 137.939 41.715 137.939 41.3302Z" fill="#343829"/>
<path d="M140.28 37.3152V43.6909H139.673V37.3152H140.28Z" fill="#343829"/>
<path d="M145.942 41.0976C145.942 41.3043 145.936 41.4623 145.925 41.5714H141.994C142.012 41.9276 142.098 42.232 142.254 42.4847C142.411 42.7375 142.616 42.9299 142.87 43.062C143.125 43.1884 143.403 43.2515 143.703 43.2515C144.097 43.2515 144.426 43.1568 144.693 42.9672C144.964 42.7777 145.144 42.5221 145.231 42.2004H145.873C145.757 42.6599 145.508 43.0361 145.126 43.3291C144.75 43.6163 144.276 43.7599 143.703 43.7599C143.258 43.7599 142.859 43.6622 142.506 43.4669C142.153 43.2659 141.876 42.9844 141.673 42.6226C141.476 42.255 141.378 41.827 141.378 41.3388C141.378 40.8506 141.476 40.4227 141.673 40.055C141.87 39.6874 142.145 39.406 142.497 39.2107C142.85 39.0154 143.252 38.9177 143.703 38.9177C144.155 38.9177 144.548 39.0154 144.883 39.2107C145.225 39.406 145.485 39.6702 145.664 40.0033C145.849 40.3307 145.942 40.6955 145.942 41.0976ZM145.326 41.0803C145.332 40.73 145.259 40.4313 145.109 40.1843C144.964 39.9373 144.765 39.7506 144.51 39.6242C144.256 39.4979 143.978 39.4347 143.677 39.4347C143.226 39.4347 142.842 39.5783 142.523 39.8655C142.205 40.1527 142.029 40.5576 141.994 41.0803H145.326Z" fill="#343829"/>
<path d="M65.8768 8.48133C62.3849 6.51128 58.6884 6.75216 55.367 8.98523C51.7217 11.4331 50.6005 15.0842 51.2706 19.2717C51.8803 23.0568 54.0701 25.7209 57.7561 26.8485C61.7725 28.0777 65.5713 27.5542 68.713 24.4956C70.1672 23.079 69.9955 22.6037 67.9722 21.7977C67.5788 21.6428 67.5106 21.8368 67.3533 22.0581C65.6775 24.3628 63.3172 25.0946 60.5898 24.8785C57.2683 24.618 54.7153 22.5594 53.9692 19.6493C53.804 19.0048 53.8302 18.6519 54.6773 18.6662C57.2119 18.7105 59.7479 18.6818 62.2826 18.6818C62.2826 18.6567 62.2826 18.6315 62.2826 18.6063C64.8199 18.6063 67.3572 18.5933 69.8879 18.6167C70.4636 18.6167 70.7783 18.5256 70.7835 17.8563C70.8294 13.8589 69.4342 10.4865 65.8768 8.48133ZM53.8433 16.1063C54.3442 12.2235 57.3903 9.69747 61.4145 9.78471C64.9471 9.86153 67.7309 12.51 68.0168 16.1063H53.8433Z" fill="#2443AA"/>
<path d="M20.3693 9.76648C20.3693 7.88758 20.3693 7.91101 18.4746 7.93575C17.9068 7.94357 17.6878 8.08159 17.714 8.67534C17.7599 9.51779 17.7258 10.368 17.7258 11.4618C14.0412 6.26648 7.21998 6.77169 3.79103 9.60893C-0.462715 13.1246 -1.28357 19.3863 2.0772 23.717C4.02574 26.2274 6.60893 27.5699 9.85825 27.6154C13.1076 27.661 15.7248 26.4344 17.7848 23.5386C17.7848 24.7443 17.8189 25.5946 17.773 26.4397C17.7416 27.0347 17.9671 27.2391 18.5375 27.1688C18.7759 27.1359 19.0177 27.1359 19.2561 27.1688C20.1176 27.299 20.4034 27.0386 20.3943 26.0985C20.3418 20.6545 20.3693 15.2079 20.3693 9.76648ZM10.0969 25.1193C5.90085 25.0829 2.60171 21.7066 2.63449 17.4956C2.66858 13.2261 6.00706 9.96049 10.3106 9.98784C14.5067 10.0152 17.8019 13.385 17.7717 17.6076C17.7403 21.8654 14.3769 25.1571 10.0969 25.1193Z" fill="#2443AA"/>
<path d="M148.566 7.51258C147.705 7.47351 147.305 7.75346 147.032 8.55424C146.451 10.2587 145.77 11.9305 145.12 13.6115C143.876 16.8329 142.629 20.0516 141.361 23.3068C140.913 23.023 140.854 22.5894 140.692 22.2365C138.769 18.0295 136.869 13.8121 134.949 9.60633C133.935 7.38367 133.924 7.39279 131.31 7.59591C131.431 7.91622 131.502 8.13888 131.597 8.35112C134.082 13.8719 136.491 19.4292 139.106 24.8876C139.869 26.4813 139.803 27.7522 138.921 29.1311C138.584 29.6833 138.205 30.2084 137.785 30.7014C137.103 31.4644 136.212 32.0035 135.19 31.9943C134.225 31.9826 134.118 32.4071 134.215 33.148C134.238 33.3174 134.238 33.489 134.215 33.6584C134.102 34.4514 134.502 34.5425 135.182 34.4696C136.8 34.3066 138.312 33.5947 139.462 32.454C140.666 31.2951 141.48 29.8941 142.085 28.3524C144.597 21.9227 147.116 15.4956 149.64 9.07117C150.234 7.53471 150.229 7.5881 148.566 7.51258Z" fill="#2443AA"/>
<path d="M83.9355 7.29253C81.3628 7.2795 79.2805 8.22091 77.5195 10.2105C77.5195 9.63497 77.5195 9.05945 77.5195 8.48393C77.5274 7.95268 77.3451 7.6493 76.7406 7.73523C76.4679 7.77283 76.1912 7.77283 75.9184 7.73523C75.15 7.62977 74.8694 7.86544 74.8825 8.70659C74.935 14.4991 74.9477 20.2921 74.9206 26.0855C74.9206 26.8094 75.112 27.0881 75.8293 26.9644C75.9318 26.9558 76.0349 26.9558 76.1374 26.9644C77.5221 26.9644 77.5221 26.9644 77.5221 25.6402C77.5221 22.7096 77.5221 19.7786 77.5221 16.8472C77.5221 15.7196 77.6296 14.6076 78.0152 13.5334C78.9737 10.8589 81.81 9.32247 84.8193 9.85763C87.5231 10.3381 88.9327 12.1675 88.938 15.2261C88.938 18.566 88.9275 21.9058 88.9445 25.2456C88.9537 27.0074 88.9786 26.98 90.7803 26.98C91.3927 26.98 91.6077 26.8433 91.5999 26.191C91.5487 22.3081 91.6117 18.4227 91.5054 14.5412C91.3861 10.0425 88.4423 7.31206 83.9355 7.29253Z" fill="#2443AA"/>
<path d="M106.032 24.7053C105.279 24.7391 104.525 24.7509 103.77 24.7404C101.905 24.7157 101.114 24.0061 101.089 22.1506C101.041 18.4058 101.074 14.661 101.05 10.9162C101.05 10.3954 101.206 10.1975 101.75 10.2157C102.812 10.2509 103.876 10.2261 104.938 10.2261C106.643 10.2261 106.613 10.2261 106.635 8.57638C106.644 7.90841 106.456 7.69226 105.776 7.72351C104.613 7.7782 103.441 7.67273 102.281 7.75867C101.326 7.83029 100.945 7.60893 101.032 6.57117C101.127 5.42404 101.002 4.25997 101.006 3.10372C101.006 2.59721 100.975 2.37846 100.33 2.56076C98.425 3.09982 98.4145 3.06336 98.4145 5.01128V5.42013C98.4145 7.73914 98.4145 7.73914 96.0988 7.73914C94.2801 7.73914 94.305 7.73914 94.3745 9.56206C94.3955 10.1141 94.5882 10.26 95.1062 10.2404C95.9624 10.2079 96.8213 10.2652 97.6763 10.2196C98.2676 10.1884 98.4368 10.3902 98.4263 10.9683C98.3935 12.8746 98.4145 14.7808 98.4145 16.6871H98.4473C98.4473 18.5256 98.4145 20.3641 98.4551 22.2027C98.5233 25.3485 100.219 27.0438 103.37 27.1662C103.917 27.187 104.467 27.1792 105.014 27.1506C106.645 27.066 106.734 26.9344 106.632 25.2886C106.606 24.8355 106.475 24.6844 106.032 24.7053Z" fill="#2443AA"/>
<path d="M127.505 24.7144C127.025 24.7287 126.545 24.7508 126.063 24.7378C124.385 24.6923 123.571 23.9735 123.545 22.3068C123.49 18.4943 123.523 14.6818 123.492 10.8693C123.492 10.2795 123.755 10.2079 124.242 10.2183C125.305 10.2417 126.368 10.2261 127.43 10.2248C129.102 10.2248 129.071 10.2248 129.08 8.53211C129.08 7.90711 128.92 7.70138 128.277 7.72742C127.045 7.7769 125.807 7.69227 124.576 7.75867C123.761 7.80294 123.395 7.63758 123.483 6.73133C123.571 5.82508 123.527 4.89409 123.495 3.97612C123.439 2.37065 123.433 2.40451 121.842 2.83289C121.109 3.03081 120.765 3.32899 120.838 4.14409C120.924 5.0894 120.828 6.05034 120.87 7.00216C120.894 7.56206 120.739 7.78341 120.14 7.75476C119.25 7.70659 118.358 7.73654 117.466 7.74565C117.213 7.74565 116.941 7.66753 116.833 8.07117C116.416 9.56726 116.885 10.2287 118.419 10.2287C118.967 10.2287 119.521 10.2704 120.063 10.2183C120.702 10.1571 120.886 10.3824 120.871 11.0126C120.831 12.8837 120.857 14.7561 120.857 16.6285H120.899C120.899 18.467 120.876 20.3055 120.899 22.1441C120.935 24.648 121.948 26.1805 123.949 26.8251C125.453 27.3042 126.988 27.2469 128.526 27.0204C128.8 26.98 129.01 26.9449 129.077 26.5686C129.37 24.9162 129.172 24.6636 127.505 24.7144Z" fill="#2443AA"/>
<path d="M35.1709 24.9071C34.5231 24.9566 33.8688 24.9514 33.2184 24.9462C31.2437 24.9279 30.4923 24.2183 30.4464 22.2326C30.4058 20.4631 30.4372 18.6923 30.4372 16.9227H30.4215C30.4215 15.0842 30.47 13.2443 30.4005 11.4084C30.369 10.5634 30.6628 10.3667 31.4495 10.4175C32.4054 10.48 33.3679 10.4318 34.3343 10.4318C36.0258 10.4318 35.9852 10.4318 36.0114 8.75997C36.0219 8.05555 35.7741 7.90971 35.1289 7.93055C33.7928 7.97482 32.454 7.92013 31.1178 7.95529C30.5789 7.96961 30.4005 7.80685 30.4215 7.26648C30.4595 6.28081 30.4517 5.29122 30.4215 4.30555C30.3795 2.55294 30.3782 2.59331 28.6893 3.05034C27.9589 3.24826 27.7137 3.58159 27.7714 4.31987C27.8396 5.26779 27.7426 6.22742 27.8029 7.17794C27.8449 7.82898 27.6075 7.99305 26.9912 7.95919C26.1376 7.90971 25.2774 7.94357 24.4212 7.94878C24.1248 7.94878 23.8403 7.88497 23.7524 8.35372C23.4338 10.0542 23.7183 10.4371 25.4269 10.4371C25.8727 10.4371 26.3264 10.4904 26.7618 10.4253C27.6626 10.2951 27.8108 10.6858 27.8108 11.5022C27.7754 15.0764 27.8016 18.6506 27.8278 22.2248C27.8527 25.5751 29.6046 27.3173 32.9732 27.3732C33.4531 27.3811 33.9331 27.3732 34.4156 27.3524C36.0455 27.2626 36.0036 27.2574 36.018 25.6753C36.0127 25.0008 35.7623 24.8615 35.1709 24.9071Z" fill="#2443AA"/>
<path d="M48.6258 24.9058C47.839 24.9553 47.0523 24.9644 46.2655 24.9384C44.713 24.8889 43.8869 24.1571 43.8633 22.6063C43.803 18.76 43.8331 14.9136 43.8082 11.066C43.8082 10.579 43.9669 10.4149 44.4638 10.4149C45.56 10.4423 46.6576 10.4227 47.7551 10.4227C49.4217 10.4227 49.3889 10.4227 49.3981 8.71961C49.3981 8.08289 49.2172 7.9006 48.5878 7.92273C47.3211 7.96831 46.0491 7.89409 44.7851 7.95268C44.0495 7.98654 43.7623 7.82247 43.8016 7.02169C43.8633 5.73263 43.778 4.43706 43.7662 3.14539C43.7662 2.77169 43.7203 2.61284 43.2417 2.7131C41.1739 3.148 41.1739 3.12586 41.1739 5.16883V5.57768C41.1739 7.94357 41.1739 7.94357 38.7979 7.94357C37.1011 7.94357 37.1404 7.94357 37.1247 9.61023C37.1181 10.3147 37.3738 10.4787 38.0177 10.4423C38.8372 10.3954 39.6646 10.4618 40.4855 10.4201C41.0362 10.3928 41.1857 10.5933 41.1791 11.1193C41.1529 12.9917 41.1686 14.8628 41.1686 16.7352H41.2014V21.2248C41.2014 26.0008 42.9847 27.648 47.822 27.3446C49.4296 27.243 49.3955 27.243 49.3876 25.6337C49.3837 25.0477 49.1988 24.8706 48.6258 24.9058Z" fill="#2443AA"/>
<path d="M113.352 9.48002C113.352 7.29253 113.495 7.82638 111.527 7.72612C110.89 7.69357 110.715 7.88628 110.723 8.51779C110.757 11.4475 110.738 14.3772 110.738 17.3068H110.772C110.772 20.2027 110.807 23.0985 110.75 25.993C110.733 26.8251 110.999 27.0855 111.776 26.9644C111.946 26.9378 112.119 26.9378 112.289 26.9644C113.122 27.1011 113.385 26.8081 113.379 25.9344C113.334 20.4436 113.363 14.9644 113.352 9.48002Z" fill="#2544AB"/>
<path d="M111.968 0.000862041C110.919 0.0229974 110.141 0.842007 110.153 1.91492C110.148 2.1609 110.194 2.40529 110.287 2.63301C110.381 2.86072 110.521 3.06692 110.698 3.23886C110.875 3.4108 111.086 3.54483 111.318 3.63267C111.549 3.72051 111.796 3.76029 112.044 3.74956C113.116 3.72872 113.88 2.93055 113.86 1.8381C113.862 1.59272 113.814 1.34946 113.719 1.12289C113.624 0.89632 113.484 0.691106 113.308 0.519549C113.131 0.347992 112.921 0.213623 112.691 0.124495C112.461 0.0353679 112.215 -0.0066833 111.968 0.000862041Z" fill="#2544AB"/>
<path d="M147.986 36.7652H147.506V38.0607H147.183V36.7652H146.71V36.5048H147.986V36.7652Z" fill="#343829"/>
<path d="M148.591 36.5061L148.994 37.6337L149.394 36.5061H149.817V38.0607H149.493V37.6311L149.526 36.898L149.104 38.0568H148.882L148.46 36.8993L148.493 37.6324V38.0568H148.173V36.5061H148.591Z" fill="#343829"/>
</svg>
