<svg width="157" height="118" viewBox="0 0 157 118" fill="none" xmlns="http://www.w3.org/2000/svg">
<path d="M99.6747 31.5757C99.6747 24.7144 99.667 17.8531 99.6516 10.9918C99.3793 11.8781 99.2186 12.7972 98.8251 13.6536C97.0742 17.4659 93.0399 19.7901 88.9675 19.3081C86.9228 19.0833 85.0027 18.2138 83.4849 16.8255C81.9671 15.4372 80.9303 13.602 80.5245 11.5854C80.4836 11.3853 80.4115 11.1919 80.3543 10.9945C80.3391 11.0969 80.3291 11.2001 80.3243 11.3036C80.3243 27.1076 80.3284 42.9111 80.3366 58.7142C80.3437 59.0579 80.3829 59.4003 80.4537 59.7367C81.2012 63.658 85.3172 67.4077 90.4053 67.3015C94.8889 67.2076 99.7401 62.9377 99.6979 57.9858C99.6216 49.182 99.6788 40.3795 99.6747 31.5757Z" fill="#DEE9F5"/>
<path d="M123.181 42.9011C123.176 37.6727 123.167 32.4439 123.153 27.2147C122.666 29.6205 121.643 31.7241 119.718 33.3239C114.065 38.024 105.519 35.0204 104.026 27.8097C103.984 27.6095 103.917 27.4134 103.863 27.216C103.848 27.2837 103.838 27.3524 103.833 27.4216C103.833 37.9156 103.837 48.4095 103.845 58.9034C103.844 60.0186 104.151 61.1123 104.733 62.0636C107.602 66.6711 111.149 67.9877 116.208 66.9352C120.02 66.1414 123.152 62.2828 123.175 58.0715C123.209 53.012 123.185 47.9552 123.181 42.9011Z" fill="#DEE9F5"/>
<path d="M135.667 44.4683C131.466 43.8828 128.203 40.8983 127.346 36.8572C127.297 36.6243 127.219 36.397 127.156 36.1655C127.149 43.7566 127.145 51.3477 127.145 58.9388C127.166 60.0178 127.459 61.0741 127.998 62.0091C130.948 67.3015 136.992 68.6576 141.837 65.9508C144.502 64.4613 146.3 61.986 146.395 59.0396C146.641 51.4217 146.466 43.7902 146.459 36.1655C146.151 37.1867 145.94 38.2323 145.447 39.199C143.607 42.8072 139.548 45.0088 135.667 44.4683Z" fill="#DEE9F5"/>
<path d="M88.9675 19.3095C93.0399 19.7901 97.0742 17.4646 98.8251 13.655C99.2186 12.7985 99.3697 11.8849 99.6516 10.9931C99.6597 10.5438 99.6747 10.0945 99.6734 9.64519C99.6687 7.57615 99.0003 5.56321 97.7665 3.90231C96.5326 2.24141 94.7985 1.02019 92.819 0.418206C90.8394 -0.183776 88.719 -0.134758 86.7694 0.558053C84.8198 1.25086 83.1439 2.55091 81.9882 4.26705C80.6075 6.30938 80.1868 8.57773 80.3543 10.9931C80.4115 11.1892 80.4836 11.3839 80.5245 11.584C80.9297 13.6011 81.967 15.4366 83.4849 16.8255C85.0027 18.2144 86.9224 19.0845 88.9675 19.3095Z" fill="#2443AA"/>
<path d="M119.718 33.3212C121.643 31.7214 122.665 29.6178 123.153 27.2119C123.161 26.8035 123.176 26.3828 123.179 25.9688C123.193 24.061 122.642 22.1918 121.595 20.5966C120.549 19.0013 119.053 17.7515 117.298 17.0044C115.542 16.2573 113.605 16.0463 111.73 16.3981C109.855 16.7499 108.126 17.6487 106.76 18.9814C104.455 21.2456 103.629 24.0463 103.866 27.2133C103.92 27.4107 103.987 27.6068 104.029 27.8069C105.519 35.0177 114.066 38.0213 119.718 33.3212Z" fill="#3A6B02"/>
<path d="M127.158 36.1669C127.222 36.397 127.294 36.6243 127.347 36.8585C128.205 40.8996 131.467 43.8842 135.669 44.4696C139.552 45.0142 143.609 42.8085 145.447 39.2004C145.94 38.2337 146.151 37.188 146.459 36.1669C146.459 35.7584 146.477 35.3363 146.478 34.9224C146.499 30.3762 143.347 26.3964 138.969 25.4215C136.824 24.9325 134.575 25.1893 132.595 26.1493C130.615 27.1094 129.022 28.7156 128.077 30.703C127.238 32.4417 127.058 34.2784 127.16 36.1682L127.158 36.1669Z" fill="#96B624"/>
<path d="M68.0744 56.4908C72.2953 55.8018 75.4622 52.7628 76.2084 48.6673C76.2832 48.2588 76.3445 47.8504 76.4044 47.4419C76.3949 47.1995 76.3894 46.9572 76.3758 46.7162C76.1566 42.7255 74.2954 39.7586 70.6573 38.1221C67.0192 36.4855 63.5173 37.0328 60.4457 39.5803C57.7525 41.8119 56.8185 44.8073 57.0554 48.2207C57.3617 49.3916 57.6572 50.5585 58.2604 51.6246C60.2169 55.1115 64.2403 57.1157 68.0744 56.4908Z" fill="#343829"/>
<path d="M76.4044 47.4364C76.3391 47.8449 76.2832 48.2534 76.2084 48.6618C75.4622 52.7574 72.3021 55.7964 68.0744 56.4853C64.2389 57.1103 60.2156 55.1074 58.2604 51.6259C57.6586 50.5544 57.3617 49.3862 57.0554 48.2221C57.0486 51.6845 57.1003 55.1496 57.0023 58.6093C56.9669 59.8565 57.3441 60.9444 57.8778 61.9506C60.8909 67.6392 67.8049 68.7134 72.3919 65.6486C75.1001 63.8391 76.561 61.2045 76.5814 57.8877C76.6005 54.7711 76.5896 51.6532 76.5814 48.5366C76.5801 48.1608 76.7067 47.7605 76.4044 47.4364Z" fill="#DEE9F5"/>
<path d="M8.57275 108.4C8.57275 108.917 8.40211 109.334 8.06083 109.65C7.71955 109.965 7.20762 110.123 6.52506 110.123H5.30166V112.691H4.69429V106.668H6.52506C7.20184 106.668 7.71087 106.826 8.05215 107.142C8.39922 107.458 8.57275 107.878 8.57275 108.4ZM6.52506 109.606C7.47371 109.606 7.94803 109.204 7.94803 108.4C7.94803 107.998 7.83523 107.694 7.60964 107.487C7.38405 107.28 7.02252 107.177 6.52506 107.177H5.30166V109.606H6.52506Z" fill="#343829"/>
<path d="M11.6656 112.76C11.2202 112.76 10.8181 112.662 10.4595 112.467C10.1067 112.266 9.82612 111.984 9.61788 111.623C9.41542 111.255 9.31419 110.827 9.31419 110.339C9.31419 109.851 9.41831 109.426 9.62655 109.064C9.83479 108.696 10.1182 108.415 10.4769 108.219C10.8355 108.018 11.2375 107.918 11.6829 107.918C12.1283 107.918 12.5303 108.018 12.889 108.219C13.2534 108.415 13.5368 108.696 13.7393 109.064C13.9475 109.426 14.0516 109.851 14.0516 110.339C14.0516 110.821 13.9475 111.246 13.7393 111.614C13.531 111.982 13.2447 112.266 12.8803 112.467C12.5159 112.662 12.111 112.76 11.6656 112.76ZM11.6656 112.234C11.9779 112.234 12.2671 112.165 12.5332 112.028C12.7993 111.884 13.0133 111.671 13.1753 111.39C13.343 111.103 13.4269 110.752 13.4269 110.339C13.4269 109.925 13.3459 109.578 13.184 109.296C13.022 109.009 12.808 108.797 12.5419 108.659C12.2758 108.515 11.9866 108.443 11.6742 108.443C11.3619 108.443 11.0727 108.515 10.8066 108.659C10.5405 108.797 10.3265 109.009 10.1645 109.296C10.0083 109.578 9.93024 109.925 9.93024 110.339C9.93024 110.752 10.0083 111.103 10.1645 111.39C10.3265 111.671 10.5376 111.884 10.7979 112.028C11.064 112.165 11.3532 112.234 11.6656 112.234Z" fill="#343829"/>
<path d="M21.406 107.987L19.9223 112.691H19.3149L18.0047 108.745L16.6946 112.691H16.0785L14.5948 107.987H15.2108L16.3909 112.079L17.7184 107.987H18.3258L19.6359 112.088L20.8073 107.987H21.406Z" fill="#343829"/>
<path d="M26.5202 110.098C26.5202 110.304 26.5145 110.462 26.5029 110.571H22.5724C22.5897 110.928 22.6765 111.232 22.8327 111.485C22.9888 111.737 23.1942 111.93 23.4487 112.062C23.7032 112.188 23.9809 112.252 24.2817 112.252C24.675 112.252 25.0047 112.157 25.2708 111.967C25.5427 111.778 25.722 111.522 25.8088 111.2H26.4508C26.3351 111.66 26.0864 112.036 25.7046 112.329C25.3286 112.616 24.8543 112.76 24.2817 112.76C23.8363 112.76 23.4371 112.662 23.0843 112.467C22.7314 112.266 22.4538 111.984 22.2513 111.623C22.0547 111.255 21.9563 110.827 21.9563 110.339C21.9563 109.851 22.0547 109.423 22.2513 109.055C22.448 108.687 22.7228 108.406 23.0756 108.211C23.4285 108.015 23.8305 107.918 24.2817 107.918C24.7328 107.918 25.1262 108.015 25.4617 108.211C25.803 108.406 26.0633 108.67 26.2426 109.003C26.4277 109.331 26.5202 109.695 26.5202 110.098ZM25.9042 110.08C25.91 109.73 25.8377 109.431 25.6873 109.184C25.5427 108.937 25.3431 108.751 25.0886 108.624C24.8341 108.498 24.5564 108.435 24.2556 108.435C23.8044 108.435 23.4198 108.578 23.1016 108.865C22.7835 109.153 22.6071 109.558 22.5724 110.08H25.9042Z" fill="#343829"/>
<path d="M28.2388 108.822C28.3719 108.529 28.5743 108.303 28.8462 108.142C29.1238 107.981 29.4622 107.901 29.8614 107.901V108.529H29.6965C29.2569 108.529 28.904 108.647 28.6379 108.883C28.3719 109.118 28.2388 109.512 28.2388 110.063V112.691H27.6315V107.987H28.2388V108.822Z" fill="#343829"/>
<path d="M32.6405 108.495H31.5386V112.691H30.9312V108.495H30.2718V107.987H30.9312V107.659C30.9312 107.148 31.0614 106.772 31.3217 106.531C31.5878 106.289 32.0158 106.169 32.6058 106.169V106.686C32.2125 106.686 31.9348 106.76 31.7729 106.91C31.6167 107.059 31.5386 107.309 31.5386 107.659V107.987H32.6405V108.495Z" fill="#343829"/>
<path d="M37.7007 107.987V112.691H37.0933V111.864C36.9545 112.157 36.7405 112.381 36.4513 112.536C36.162 112.691 35.8381 112.768 35.4795 112.768C34.9126 112.768 34.4498 112.596 34.0912 112.252C33.7326 111.901 33.5533 111.396 33.5533 110.735V107.987H34.1519V110.666C34.1519 111.177 34.2792 111.568 34.5337 111.838C34.794 112.108 35.1469 112.243 35.5923 112.243C36.0492 112.243 36.4137 112.099 36.6855 111.812C36.9574 111.525 37.0933 111.103 37.0933 110.546V107.987H37.7007Z" fill="#343829"/>
<path d="M39.6947 106.315V112.691H39.0873V106.315H39.6947Z" fill="#343829"/>
<path d="M44.0584 106.668V112.691H43.4511V106.668H44.0584Z" fill="#343829"/>
<path d="M47.655 107.901C48.2219 107.901 48.6847 108.076 49.0433 108.426C49.4019 108.771 49.5812 109.273 49.5812 109.934V112.691H48.9826V110.003C48.9826 109.492 48.8524 109.101 48.5921 108.831C48.3376 108.561 47.9876 108.426 47.5422 108.426C47.0853 108.426 46.7208 108.57 46.449 108.857C46.1771 109.144 46.0412 109.566 46.0412 110.123V112.691H45.4338V107.987H46.0412V108.788C46.1916 108.501 46.4085 108.282 46.6919 108.133C46.9754 107.978 47.2964 107.901 47.655 107.901Z" fill="#343829"/>
<path d="M51.7141 108.495V111.416C51.7141 111.703 51.769 111.901 51.8789 112.01C51.9888 112.119 52.1826 112.174 52.4603 112.174H53.0156V112.691H52.3648C51.9368 112.691 51.6186 112.593 51.4104 112.398C51.2021 112.197 51.098 111.87 51.098 111.416V108.495H50.4386V107.987H51.098V106.806H51.7141V107.987H53.0156V108.495H51.7141Z" fill="#343829"/>
<path d="M58.3035 110.098C58.3035 110.304 58.2977 110.462 58.2861 110.571H54.3556C54.373 110.928 54.4598 111.232 54.6159 111.485C54.7721 111.737 54.9775 111.93 55.232 112.062C55.4865 112.188 55.7641 112.252 56.0649 112.252C56.4583 112.252 56.788 112.157 57.0541 111.967C57.3259 111.778 57.5053 111.522 57.592 111.2H58.2341C58.1184 111.66 57.8697 112.036 57.4879 112.329C57.1119 112.616 56.6376 112.76 56.0649 112.76C55.6195 112.76 55.2204 112.662 54.8676 112.467C54.5147 112.266 54.2371 111.984 54.0346 111.623C53.8379 111.255 53.7396 110.827 53.7396 110.339C53.7396 109.851 53.8379 109.423 54.0346 109.055C54.2313 108.687 54.506 108.406 54.8589 108.211C55.2117 108.015 55.6137 107.918 56.0649 107.918C56.5161 107.918 56.9095 108.015 57.245 108.211C57.5862 108.406 57.8465 108.67 58.0258 109.003C58.2109 109.331 58.3035 109.695 58.3035 110.098ZM57.6875 110.08C57.6932 109.73 57.6209 109.431 57.4705 109.184C57.3259 108.937 57.1264 108.751 56.8719 108.624C56.6173 108.498 56.3397 108.435 56.0389 108.435C55.5877 108.435 55.2031 108.578 54.8849 108.865C54.5668 109.153 54.3903 109.558 54.3556 110.08H57.6875Z" fill="#343829"/>
<path d="M60.0221 106.315V112.691H59.4147V106.315H60.0221Z" fill="#343829"/>
<path d="M62.0048 106.315V112.691H61.3975V106.315H62.0048Z" fill="#343829"/>
<path d="M63.6839 107.099C63.5624 107.099 63.4583 107.056 63.3715 106.97C63.2848 106.884 63.2414 106.778 63.2414 106.651C63.2414 106.525 63.2848 106.421 63.3715 106.341C63.4583 106.255 63.5624 106.212 63.6839 106.212C63.8054 106.212 63.9095 106.255 63.9963 106.341C64.083 106.421 64.1264 106.525 64.1264 106.651C64.1264 106.778 64.083 106.884 63.9963 106.97C63.9095 107.056 63.8054 107.099 63.6839 107.099ZM63.9876 107.987V112.691H63.3802V107.987H63.9876Z" fill="#343829"/>
<path d="M67.3499 107.918C67.7953 107.918 68.1829 108.021 68.5126 108.228C68.8423 108.435 69.0795 108.696 69.2241 109.012V107.987H69.8314V112.812C69.8314 113.242 69.736 113.624 69.5451 113.957C69.36 114.291 69.0997 114.546 68.7642 114.724C68.4287 114.908 68.0469 115 67.6189 115C67.0115 115 66.5054 114.856 66.1005 114.569C65.7014 114.282 65.4526 113.891 65.3543 113.397H65.953C66.0571 113.725 66.2538 113.986 66.543 114.181C66.838 114.377 67.1966 114.474 67.6189 114.474C67.9255 114.474 68.2002 114.408 68.4432 114.276C68.6861 114.15 68.877 113.96 69.0158 113.708C69.1547 113.455 69.2241 113.156 69.2241 112.812V111.648C69.0737 111.97 68.8336 112.237 68.5039 112.45C68.18 112.656 67.7953 112.76 67.3499 112.76C66.9161 112.76 66.5256 112.659 66.1786 112.458C65.8373 112.257 65.5683 111.973 65.3716 111.605C65.1808 111.238 65.0853 110.813 65.0853 110.33C65.0853 109.848 65.1808 109.426 65.3716 109.064C65.5683 108.696 65.8373 108.415 66.1786 108.219C66.5256 108.018 66.9161 107.918 67.3499 107.918ZM69.2241 110.339C69.2241 109.96 69.146 109.627 68.9898 109.339C68.8336 109.052 68.6196 108.831 68.3477 108.676C68.0816 108.521 67.7866 108.443 67.4627 108.443C67.1272 108.443 66.8264 108.518 66.5603 108.667C66.2943 108.817 66.0831 109.035 65.9269 109.322C65.7766 109.604 65.7014 109.94 65.7014 110.33C65.7014 110.715 65.7766 111.054 65.9269 111.347C66.0831 111.634 66.2943 111.855 66.5603 112.01C66.8264 112.16 67.1272 112.234 67.4627 112.234C67.7866 112.234 68.0816 112.157 68.3477 112.002C68.6196 111.847 68.8336 111.625 68.9898 111.338C69.146 111.051 69.2241 110.718 69.2241 110.339Z" fill="#343829"/>
<path d="M75.5043 110.098C75.5043 110.304 75.4985 110.462 75.4869 110.571H71.5564C71.5737 110.928 71.6605 111.232 71.8167 111.485C71.9729 111.737 72.1782 111.93 72.4327 112.062C72.6872 112.188 72.9649 112.252 73.2657 112.252C73.659 112.252 73.9887 112.157 74.2548 111.967C74.5267 111.778 74.706 111.522 74.7928 111.2H75.4348C75.3192 111.66 75.0704 112.036 74.6887 112.329C74.3127 112.616 73.8383 112.76 73.2657 112.76C72.8203 112.76 72.4212 112.662 72.0683 112.467C71.7155 112.266 71.4378 111.984 71.2354 111.623C71.0387 111.255 70.9403 110.827 70.9403 110.339C70.9403 109.851 71.0387 109.423 71.2354 109.055C71.432 108.687 71.7068 108.406 72.0596 108.211C72.4125 108.015 72.8145 107.918 73.2657 107.918C73.7169 107.918 74.1102 108.015 74.4457 108.211C74.787 108.406 75.0473 108.67 75.2266 109.003C75.4117 109.331 75.5043 109.695 75.5043 110.098ZM74.8882 110.08C74.894 109.73 74.8217 109.431 74.6713 109.184C74.5267 108.937 74.3271 108.751 74.0726 108.624C73.8181 108.498 73.5404 108.435 73.2397 108.435C72.7885 108.435 72.4038 108.578 72.0857 108.865C71.7675 109.153 71.5911 109.558 71.5564 110.08H74.8882Z" fill="#343829"/>
<path d="M78.8367 107.901C79.4036 107.901 79.8663 108.076 80.225 108.426C80.5836 108.771 80.7629 109.273 80.7629 109.934V112.691H80.1642V110.003C80.1642 109.492 80.0341 109.101 79.7738 108.831C79.5193 108.561 79.1693 108.426 78.7239 108.426C78.2669 108.426 77.9025 108.57 77.6306 108.857C77.3588 109.144 77.2228 109.566 77.2228 110.123V112.691H76.6155V107.987H77.2228V108.788C77.3732 108.501 77.5901 108.282 77.8736 108.133C78.157 107.978 78.4781 107.901 78.8367 107.901Z" fill="#343829"/>
<path d="M81.8285 110.339C81.8285 109.851 81.9268 109.426 82.1235 109.064C82.3202 108.696 82.5921 108.415 82.9391 108.219C83.2862 108.018 83.6824 107.918 84.1278 107.918C84.7121 107.918 85.1922 108.061 85.5681 108.349C85.9499 108.636 86.1958 109.026 86.3057 109.52H85.6549C85.5739 109.181 85.3975 108.917 85.1256 108.728C84.8596 108.532 84.5269 108.435 84.1278 108.435C83.8097 108.435 83.5234 108.507 83.2688 108.65C83.0143 108.794 82.8119 109.009 82.6615 109.296C82.5169 109.578 82.4446 109.925 82.4446 110.339C82.4446 110.752 82.5169 111.103 82.6615 111.39C82.8119 111.677 83.0143 111.893 83.2688 112.036C83.5234 112.18 83.8097 112.252 84.1278 112.252C84.5269 112.252 84.8596 112.157 85.1256 111.967C85.3975 111.772 85.5739 111.502 85.6549 111.157H86.3057C86.1958 111.64 85.9499 112.028 85.5681 112.32C85.1864 112.613 84.7063 112.76 84.1278 112.76C83.6824 112.76 83.2862 112.662 82.9391 112.467C82.5921 112.266 82.3202 111.984 82.1235 111.623C81.9268 111.255 81.8285 110.827 81.8285 110.339Z" fill="#343829"/>
<path d="M91.7136 110.098C91.7136 110.304 91.7079 110.462 91.6963 110.571H87.7658C87.7831 110.928 87.8699 111.232 88.0261 111.485C88.1822 111.737 88.3876 111.93 88.6421 112.062C88.8966 112.188 89.1743 112.252 89.4751 112.252C89.8684 112.252 90.1981 112.157 90.4642 111.967C90.7361 111.778 90.9154 111.522 91.0022 111.2H91.6442C91.5285 111.66 91.2798 112.036 90.898 112.329C90.522 112.616 90.0477 112.76 89.4751 112.76C89.0297 112.76 88.6305 112.662 88.2777 112.467C87.9248 112.266 87.6472 111.984 87.4447 111.623C87.2481 111.255 87.1497 110.827 87.1497 110.339C87.1497 109.851 87.2481 109.423 87.4447 109.055C87.6414 108.687 87.9162 108.406 88.269 108.211C88.6219 108.015 89.0239 107.918 89.4751 107.918C89.9263 107.918 90.3196 108.015 90.6551 108.211C90.9964 108.406 91.2567 108.67 91.436 109.003C91.6211 109.331 91.7136 109.695 91.7136 110.098ZM91.0976 110.08C91.1034 109.73 91.0311 109.431 90.8807 109.184C90.7361 108.937 90.5365 108.751 90.282 108.624C90.0275 108.498 89.7498 108.435 89.449 108.435C88.9979 108.435 88.6132 108.578 88.295 108.865C87.9769 109.153 87.8005 109.558 87.7658 110.08H91.0976Z" fill="#343829"/>
<path d="M101.132 106.746V112.691H100.525V107.944L98.3902 112.691H97.9477L95.8132 107.961V112.691H95.2058V106.746H95.8479L98.1646 111.898L100.481 106.746H101.132Z" fill="#343829"/>
<path d="M102.232 110.33C102.232 109.848 102.328 109.426 102.518 109.064C102.715 108.696 102.984 108.415 103.325 108.219C103.672 108.018 104.063 107.918 104.497 107.918C104.948 107.918 105.336 108.021 105.659 108.228C105.989 108.435 106.226 108.699 106.371 109.021V107.987H106.978V112.691H106.371V111.648C106.221 111.97 105.98 112.237 105.651 112.45C105.327 112.656 104.939 112.76 104.488 112.76C104.06 112.76 103.672 112.659 103.325 112.458C102.984 112.257 102.715 111.973 102.518 111.605C102.328 111.238 102.232 110.813 102.232 110.33ZM106.371 110.339C106.371 109.96 106.293 109.627 106.137 109.339C105.98 109.052 105.766 108.831 105.495 108.676C105.228 108.521 104.933 108.443 104.61 108.443C104.274 108.443 103.973 108.518 103.707 108.667C103.441 108.817 103.23 109.035 103.074 109.322C102.923 109.604 102.848 109.94 102.848 110.33C102.848 110.715 102.923 111.054 103.074 111.347C103.23 111.634 103.441 111.855 103.707 112.01C103.973 112.16 104.274 112.234 104.61 112.234C104.933 112.234 105.228 112.157 105.495 112.002C105.766 111.847 105.98 111.625 106.137 111.338C106.293 111.051 106.371 110.718 106.371 110.339Z" fill="#343829"/>
<path d="M108.087 110.33C108.087 109.848 108.186 109.426 108.382 109.064C108.579 108.696 108.848 108.415 109.189 108.219C109.536 108.018 109.927 107.918 110.36 107.918C110.777 107.918 111.153 108.018 111.488 108.219C111.824 108.42 112.07 108.682 112.226 109.003V106.315H112.833V112.691H112.226V111.64C112.081 111.967 111.844 112.237 111.514 112.45C111.185 112.656 110.797 112.76 110.352 112.76C109.918 112.76 109.528 112.659 109.18 112.458C108.839 112.257 108.57 111.973 108.374 111.605C108.183 111.238 108.087 110.813 108.087 110.33ZM112.226 110.339C112.226 109.96 112.148 109.627 111.992 109.339C111.836 109.052 111.621 108.831 111.35 108.676C111.084 108.521 110.789 108.443 110.465 108.443C110.129 108.443 109.828 108.518 109.562 108.667C109.296 108.817 109.085 109.035 108.929 109.322C108.778 109.604 108.703 109.94 108.703 110.33C108.703 110.715 108.778 111.054 108.929 111.347C109.085 111.634 109.296 111.855 109.562 112.01C109.828 112.16 110.129 112.234 110.465 112.234C110.789 112.234 111.084 112.157 111.35 112.002C111.621 111.847 111.836 111.625 111.992 111.338C112.148 111.051 112.226 110.718 112.226 110.339Z" fill="#343829"/>
<path d="M118.506 110.098C118.506 110.304 118.5 110.462 118.489 110.571H114.558C114.576 110.928 114.662 111.232 114.819 111.485C114.975 111.737 115.18 111.93 115.435 112.062C115.689 112.188 115.967 112.252 116.268 112.252C116.661 112.252 116.991 112.157 117.257 111.967C117.529 111.778 117.708 111.522 117.795 111.2H118.437C118.321 111.66 118.072 112.036 117.691 112.329C117.315 112.616 116.84 112.76 116.268 112.76C115.822 112.76 115.423 112.662 115.07 112.467C114.717 112.266 114.44 111.984 114.237 111.623C114.041 111.255 113.942 110.827 113.942 110.339C113.942 109.851 114.041 109.423 114.237 109.055C114.434 108.687 114.709 108.406 115.062 108.211C115.414 108.015 115.816 107.918 116.268 107.918C116.719 107.918 117.112 108.015 117.448 108.211C117.789 108.406 118.049 108.67 118.228 109.003C118.414 109.331 118.506 109.695 118.506 110.098ZM117.89 110.08C117.896 109.73 117.824 109.431 117.673 109.184C117.529 108.937 117.329 108.751 117.074 108.624C116.82 108.498 116.542 108.435 116.242 108.435C115.79 108.435 115.406 108.578 115.088 108.865C114.769 109.153 114.593 109.558 114.558 110.08H117.89Z" fill="#343829"/>
<path d="M123.838 112.751C123.439 112.751 123.086 112.682 122.779 112.544C122.478 112.407 122.241 112.214 122.068 111.967C121.894 111.72 121.802 111.445 121.79 111.14H122.432C122.461 111.433 122.591 111.692 122.823 111.916C123.054 112.134 123.392 112.243 123.838 112.243C124.248 112.243 124.572 112.14 124.81 111.933C125.053 111.72 125.174 111.453 125.174 111.131C125.174 110.873 125.107 110.666 124.974 110.511C124.841 110.35 124.677 110.233 124.48 110.158C124.283 110.077 124.011 109.991 123.664 109.899C123.259 109.79 122.938 109.684 122.701 109.581C122.464 109.477 122.262 109.316 122.094 109.098C121.926 108.88 121.842 108.584 121.842 108.211C121.842 107.901 121.923 107.625 122.085 107.384C122.247 107.137 122.476 106.944 122.771 106.806C123.066 106.668 123.404 106.6 123.786 106.6C124.347 106.6 124.798 106.737 125.139 107.013C125.486 107.283 125.686 107.633 125.738 108.064H125.079C125.038 107.817 124.902 107.599 124.671 107.409C124.439 107.214 124.127 107.116 123.734 107.116C123.369 107.116 123.066 107.214 122.823 107.409C122.58 107.599 122.458 107.86 122.458 108.193C122.458 108.446 122.525 108.65 122.658 108.805C122.791 108.96 122.956 109.078 123.152 109.158C123.355 109.239 123.627 109.325 123.968 109.417C124.361 109.526 124.679 109.635 124.922 109.744C125.165 109.848 125.371 110.009 125.538 110.227C125.706 110.445 125.79 110.738 125.79 111.106C125.79 111.387 125.715 111.654 125.564 111.907C125.414 112.16 125.191 112.364 124.896 112.519C124.601 112.674 124.248 112.751 123.838 112.751Z" fill="#343829"/>
<path d="M127.267 107.099C127.146 107.099 127.042 107.056 126.955 106.97C126.868 106.884 126.825 106.778 126.825 106.651C126.825 106.525 126.868 106.421 126.955 106.341C127.042 106.255 127.146 106.212 127.267 106.212C127.389 106.212 127.493 106.255 127.58 106.341C127.667 106.421 127.71 106.525 127.71 106.651C127.71 106.778 127.667 106.884 127.58 106.97C127.493 107.056 127.389 107.099 127.267 107.099ZM127.571 107.987V112.691H126.964V107.987H127.571Z" fill="#343829"/>
<path d="M134.586 107.901C135.142 107.901 135.593 108.076 135.94 108.426C136.293 108.771 136.469 109.273 136.469 109.934V112.691H135.87V110.003C135.87 109.492 135.746 109.101 135.497 108.831C135.249 108.561 134.91 108.426 134.482 108.426C134.037 108.426 133.681 108.573 133.415 108.865C133.149 109.158 133.016 109.583 133.016 110.141V112.691H132.417V110.003C132.417 109.492 132.293 109.101 132.044 108.831C131.795 108.561 131.454 108.426 131.02 108.426C130.575 108.426 130.219 108.573 129.953 108.865C129.687 109.158 129.554 109.583 129.554 110.141V112.691H128.946V107.987H129.554V108.797C129.704 108.504 129.918 108.282 130.196 108.133C130.474 107.978 130.783 107.901 131.124 107.901C131.535 107.901 131.894 107.998 132.2 108.193C132.513 108.389 132.738 108.676 132.877 109.055C133.004 108.682 133.221 108.397 133.528 108.202C133.84 108.001 134.193 107.901 134.586 107.901Z" fill="#343829"/>
<path d="M138.417 109.021C138.567 108.705 138.804 108.443 139.128 108.237C139.458 108.024 139.848 107.918 140.299 107.918C140.728 107.918 141.112 108.018 141.453 108.219C141.801 108.415 142.07 108.696 142.26 109.064C142.457 109.426 142.555 109.848 142.555 110.33C142.555 110.813 142.457 111.238 142.26 111.605C142.07 111.973 141.801 112.257 141.453 112.458C141.112 112.659 140.728 112.76 140.299 112.76C139.854 112.76 139.467 112.656 139.137 112.45C138.807 112.237 138.567 111.973 138.417 111.657V114.914H137.818V107.987H138.417V109.021ZM141.939 110.33C141.939 109.94 141.861 109.604 141.705 109.322C141.555 109.035 141.346 108.817 141.08 108.667C140.814 108.518 140.514 108.443 140.178 108.443C139.854 108.443 139.556 108.521 139.284 108.676C139.018 108.831 138.807 109.052 138.651 109.339C138.495 109.627 138.417 109.96 138.417 110.339C138.417 110.718 138.495 111.051 138.651 111.338C138.807 111.625 139.018 111.847 139.284 112.002C139.556 112.157 139.854 112.234 140.178 112.234C140.514 112.234 140.814 112.16 141.08 112.01C141.346 111.855 141.555 111.634 141.705 111.347C141.861 111.054 141.939 110.715 141.939 110.33Z" fill="#343829"/>
<path d="M144.28 106.315V112.691H143.673V106.315H144.28Z" fill="#343829"/>
<path d="M149.942 110.098C149.942 110.304 149.936 110.462 149.925 110.571H145.994C146.012 110.928 146.098 111.232 146.254 111.485C146.411 111.737 146.616 111.93 146.87 112.062C147.125 112.188 147.403 112.252 147.703 112.252C148.097 112.252 148.426 112.157 148.693 111.967C148.964 111.778 149.144 111.522 149.231 111.2H149.873C149.757 111.66 149.508 112.036 149.126 112.329C148.75 112.616 148.276 112.76 147.703 112.76C147.258 112.76 146.859 112.662 146.506 112.467C146.153 112.266 145.876 111.984 145.673 111.623C145.476 111.255 145.378 110.827 145.378 110.339C145.378 109.851 145.476 109.423 145.673 109.055C145.87 108.687 146.145 108.406 146.497 108.211C146.85 108.015 147.252 107.918 147.703 107.918C148.155 107.918 148.548 108.015 148.883 108.211C149.225 108.406 149.485 108.67 149.664 109.003C149.849 109.331 149.942 109.695 149.942 110.098ZM149.326 110.08C149.332 109.73 149.259 109.431 149.109 109.184C148.964 108.937 148.765 108.751 148.51 108.624C148.256 108.498 147.978 108.435 147.677 108.435C147.226 108.435 146.842 108.578 146.523 108.865C146.205 109.153 146.029 109.558 145.994 110.08H149.326Z" fill="#343829"/>
<path d="M69.8768 77.4813C66.3849 75.5113 62.6884 75.7522 59.367 77.9852C55.7217 80.4331 54.6005 84.0842 55.2706 88.2717C55.8803 92.0568 58.0701 94.7209 61.7561 95.8485C65.7725 97.0777 69.5713 96.5542 72.713 93.4956C74.1672 92.079 73.9955 91.6037 71.9722 90.7977C71.5788 90.6428 71.5106 90.8368 71.3533 91.0581C69.6775 93.3628 67.3172 94.0946 64.5898 93.8785C61.2683 93.618 58.7153 91.5594 57.9692 88.6493C57.804 88.0048 57.8302 87.6519 58.6773 87.6662C61.2119 87.7105 63.7479 87.6818 66.2826 87.6818C66.2826 87.6567 66.2826 87.6315 66.2826 87.6063C68.8199 87.6063 71.3572 87.5933 73.8879 87.6167C74.4636 87.6167 74.7783 87.5256 74.7835 86.8563C74.8294 82.8589 73.4342 79.4865 69.8768 77.4813ZM57.8433 85.1063C58.3442 81.2235 61.3903 78.6975 65.4145 78.7847C68.9471 78.8615 71.7309 81.51 72.0168 85.1063H57.8433Z" fill="#2443AA"/>
<path d="M24.3693 78.7665C24.3693 76.8876 24.3693 76.911 22.4746 76.9358C21.9068 76.9436 21.6878 77.0816 21.714 77.6753C21.7599 78.5178 21.7258 79.368 21.7258 80.4618C18.0412 75.2665 11.22 75.7717 7.79103 78.6089C3.53728 82.1246 2.71643 88.3863 6.0772 92.717C8.02574 95.2274 10.6089 96.5699 13.8582 96.6154C17.1076 96.661 19.7248 95.4344 21.7848 92.5386C21.7848 93.7443 21.8189 94.5946 21.773 95.4397C21.7416 96.0347 21.9671 96.2391 22.5375 96.1688C22.7759 96.1359 23.0177 96.1359 23.2561 96.1688C24.1176 96.299 24.4034 96.0386 24.3943 95.0985C24.3418 89.6545 24.3693 84.2079 24.3693 78.7665ZM14.0969 94.1193C9.90085 94.0829 6.60171 90.7066 6.63449 86.4956C6.66858 82.2261 10.0071 78.9605 14.3106 78.9878C18.5067 79.0152 21.8019 82.385 21.7717 86.6076C21.7403 90.8654 18.3769 94.1571 14.0969 94.1193Z" fill="#2443AA"/>
<path d="M152.566 76.5126C151.705 76.4735 151.305 76.7535 151.032 77.5542C150.451 79.2587 149.77 80.9305 149.12 82.6115C147.876 85.8329 146.629 89.0516 145.361 92.3068C144.913 92.023 144.854 91.5894 144.692 91.2365C142.769 87.0295 140.869 82.8121 138.949 78.6063C137.935 76.3837 137.924 76.3928 135.31 76.5959C135.431 76.9162 135.502 77.1389 135.597 77.3511C138.082 82.8719 140.491 88.4292 143.106 93.8876C143.869 95.4813 143.803 96.7522 142.921 98.1311C142.584 98.6833 142.205 99.2084 141.785 99.7014C141.103 100.464 140.212 101.003 139.19 100.994C138.225 100.983 138.118 101.407 138.215 102.148C138.238 102.317 138.238 102.489 138.215 102.658C138.102 103.451 138.502 103.543 139.182 103.47C140.8 103.307 142.312 102.595 143.462 101.454C144.666 100.295 145.48 98.8941 146.085 97.3524C148.597 90.9227 151.116 84.4956 153.64 78.0712C154.234 76.5347 154.229 76.5881 152.566 76.5126Z" fill="#2443AA"/>
<path d="M87.9355 76.2925C85.3628 76.2795 83.2805 77.2209 81.5195 79.2105C81.5195 78.635 81.5195 78.0595 81.5195 77.4839C81.5274 76.9527 81.3451 76.6493 80.7406 76.7352C80.4679 76.7728 80.1912 76.7728 79.9184 76.7352C79.15 76.6298 78.8694 76.8654 78.8825 77.7066C78.935 83.4991 78.9477 89.2921 78.9206 95.0855C78.9206 95.8094 79.112 96.0881 79.8293 95.9644C79.9318 95.9558 80.0349 95.9558 80.1374 95.9644C81.5221 95.9644 81.5221 95.9644 81.5221 94.6402C81.5221 91.7096 81.5221 88.7786 81.5221 85.8472C81.5221 84.7196 81.6296 83.6076 82.0152 82.5334C82.9737 79.8589 85.81 78.3225 88.8193 78.8576C91.5231 79.3381 92.9327 81.1675 92.938 84.2261C92.938 87.566 92.9275 90.9058 92.9445 94.2456C92.9537 96.0074 92.9786 95.98 94.7803 95.98C95.3927 95.98 95.6077 95.8433 95.5999 95.191C95.5487 91.3081 95.6117 87.4227 95.5054 83.5412C95.3861 79.0425 92.4423 76.3121 87.9355 76.2925Z" fill="#2443AA"/>
<path d="M110.032 93.7053C109.279 93.7391 108.525 93.7509 107.77 93.7404C105.905 93.7157 105.114 93.0061 105.089 91.1506C105.041 87.4058 105.074 83.661 105.05 79.9162C105.05 79.3954 105.206 79.1975 105.75 79.2157C106.812 79.2509 107.876 79.2261 108.938 79.2261C110.643 79.2261 110.613 79.2261 110.635 77.5764C110.644 76.9084 110.456 76.6923 109.776 76.7235C108.613 76.7782 107.441 76.6727 106.281 76.7587C105.326 76.8303 104.945 76.6089 105.032 75.5712C105.127 74.424 105.002 73.26 105.006 72.1037C105.006 71.5972 104.975 71.3785 104.33 71.5608C102.425 72.0998 102.414 72.0634 102.414 74.0113V74.4201C102.414 76.7391 102.414 76.7391 100.099 76.7391C98.2801 76.7391 98.305 76.7391 98.3745 78.5621C98.3955 79.1141 98.5882 79.26 99.1062 79.2404C99.9624 79.2079 100.821 79.2652 101.676 79.2196C102.268 79.1884 102.437 79.3902 102.426 79.9683C102.394 81.8746 102.414 83.7808 102.414 85.6871H102.447C102.447 87.5256 102.414 89.3641 102.455 91.2027C102.523 94.3485 104.219 96.0438 107.37 96.1662C107.917 96.187 108.467 96.1792 109.014 96.1506C110.645 96.066 110.734 95.9344 110.632 94.2886C110.606 93.8355 110.475 93.6844 110.032 93.7053Z" fill="#2443AA"/>
<path d="M131.505 93.7144C131.025 93.7287 130.545 93.7508 130.063 93.7378C128.385 93.6923 127.571 92.9735 127.545 91.3068C127.49 87.4943 127.523 83.6818 127.492 79.8693C127.492 79.2795 127.755 79.2079 128.242 79.2183C129.305 79.2417 130.368 79.2261 131.43 79.2248C133.102 79.2248 133.071 79.2248 133.08 77.5321C133.08 76.9071 132.92 76.7014 132.277 76.7274C131.045 76.7769 129.807 76.6923 128.576 76.7587C127.761 76.8029 127.395 76.6376 127.483 75.7313C127.571 74.8251 127.527 73.8941 127.495 72.9761C127.439 71.3707 127.433 71.4045 125.842 71.8329C125.109 72.0308 124.765 72.329 124.838 73.1441C124.924 74.0894 124.828 75.0503 124.87 76.0022C124.894 76.5621 124.739 76.7834 124.14 76.7548C123.25 76.7066 122.358 76.7365 121.466 76.7456C121.213 76.7456 120.941 76.6675 120.833 77.0712C120.416 78.5673 120.885 79.2287 122.419 79.2287C122.967 79.2287 123.521 79.2704 124.063 79.2183C124.702 79.1571 124.886 79.3824 124.871 80.0126C124.831 81.8837 124.857 83.7561 124.857 85.6285H124.899C124.899 87.467 124.876 89.3055 124.899 91.1441C124.935 93.648 125.948 95.1805 127.949 95.8251C129.453 96.3042 130.988 96.2469 132.526 96.0204C132.8 95.98 133.01 95.9449 133.077 95.5686C133.37 93.9162 133.172 93.6636 131.505 93.7144Z" fill="#2443AA"/>
<path d="M39.1709 93.9071C38.5231 93.9566 37.8688 93.9514 37.2184 93.9462C35.2437 93.9279 34.4923 93.2183 34.4464 91.2326C34.4058 89.4631 34.4372 87.6923 34.4372 85.9227H34.4215C34.4215 84.0842 34.47 82.2443 34.4005 80.4084C34.369 79.5634 34.6628 79.3667 35.4495 79.4175C36.4054 79.48 37.3679 79.4318 38.3343 79.4318C40.0258 79.4318 39.9852 79.4318 40.0114 77.76C40.0219 77.0555 39.7741 76.9097 39.1289 76.9305C37.7928 76.9748 36.454 76.9201 35.1178 76.9553C34.5789 76.9696 34.4005 76.8068 34.4215 76.2665C34.4595 75.2808 34.4517 74.2912 34.4215 73.3055C34.3795 71.5529 34.3782 71.5933 32.6893 72.0503C31.9589 72.2483 31.7137 72.5816 31.7714 73.3199C31.8396 74.2678 31.7426 75.2274 31.8029 76.1779C31.8449 76.829 31.6075 76.993 30.9912 76.9592C30.1376 76.9097 29.2774 76.9436 28.4212 76.9488C28.1248 76.9488 27.8403 76.885 27.7524 77.3537C27.4338 79.0542 27.7183 79.4371 29.4269 79.4371C29.8727 79.4371 30.3264 79.4904 30.7618 79.4253C31.6626 79.2951 31.8108 79.6858 31.8108 80.5022C31.7754 84.0764 31.8016 87.6506 31.8278 91.2248C31.8527 94.5751 33.6046 96.3173 36.9732 96.3732C37.4531 96.3811 37.9331 96.3732 38.4156 96.3524C40.0455 96.2626 40.0036 96.2574 40.018 94.6753C40.0127 94.0008 39.7623 93.8615 39.1709 93.9071Z" fill="#2443AA"/>
<path d="M52.6258 93.9058C51.839 93.9553 51.0523 93.9644 50.2655 93.9384C48.713 93.8889 47.8869 93.1571 47.8633 91.6063C47.803 87.76 47.8331 83.9136 47.8082 80.066C47.8082 79.579 47.9669 79.4149 48.4638 79.4149C49.56 79.4423 50.6576 79.4227 51.7551 79.4227C53.4217 79.4227 53.3889 79.4227 53.3981 77.7196C53.3981 77.0829 53.2172 76.9006 52.5878 76.9227C51.3211 76.9683 50.0491 76.8941 48.7851 76.9527C48.0495 76.9865 47.7623 76.8225 47.8016 76.0217C47.8633 74.7326 47.778 73.4371 47.7662 72.1454C47.7662 71.7717 47.7203 71.6128 47.2417 71.7131C45.1739 72.148 45.1739 72.1259 45.1739 74.1688V74.5777C45.1739 76.9436 45.1739 76.9436 42.7979 76.9436C41.1011 76.9436 41.1404 76.9436 41.1247 78.6102C41.1181 79.3147 41.3738 79.4787 42.0177 79.4423C42.8372 79.3954 43.6646 79.4618 44.4855 79.4201C45.0362 79.3928 45.1857 79.5933 45.1791 80.1193C45.1529 81.9917 45.1686 83.8628 45.1686 85.7352H45.2014V90.2248C45.2014 95.0008 46.9847 96.648 51.822 96.3446C53.4296 96.243 53.3955 96.243 53.3876 94.6337C53.3837 94.0477 53.1988 93.8706 52.6258 93.9058Z" fill="#2443AA"/>
<path d="M117.352 78.48C117.352 76.2925 117.495 76.8264 115.527 76.7261C114.89 76.6936 114.715 76.8863 114.723 77.5178C114.757 80.4475 114.738 83.3772 114.738 86.3068H114.772C114.772 89.2027 114.807 92.0985 114.75 94.993C114.733 95.8251 114.999 96.0855 115.776 95.9644C115.946 95.9378 116.119 95.9378 116.289 95.9644C117.122 96.1011 117.385 95.8081 117.379 94.9344C117.334 89.4436 117.363 83.9644 117.352 78.48Z" fill="#2544AB"/>
<path d="M115.968 69.0009C114.919 69.023 114.141 69.842 114.153 70.9149C114.148 71.1609 114.194 71.4053 114.287 71.633C114.381 71.8607 114.521 72.0669 114.698 72.2389C114.875 72.4108 115.086 72.5448 115.318 72.6327C115.549 72.7205 115.796 72.7603 116.044 72.7496C117.116 72.7287 117.88 71.9305 117.86 70.8381C117.862 70.5927 117.814 70.3495 117.719 70.1229C117.624 69.8963 117.484 69.6911 117.308 69.5195C117.131 69.348 116.921 69.2136 116.691 69.1245C116.461 69.0354 116.215 68.9933 115.968 69.0009Z" fill="#2544AB"/>
<path d="M151.986 105.765H151.506V107.061H151.183V105.765H150.71V105.505H151.986V105.765Z" fill="#343829"/>
<path d="M152.591 105.506L152.994 106.634L153.394 105.506H153.817V107.061H153.493V106.631L153.526 105.898L153.104 107.057H152.882L152.46 105.899L152.493 106.632V107.057H152.173V105.506H152.591Z" fill="#343829"/>
</svg>
